<?xml version="1.0" standalone="no"?>
<!DOCTYPE svg PUBLIC "-//W3C//DTD SVG 20010904//EN"
 "http://www.w3.org/TR/2001/REC-SVG-20010904/DTD/svg10.dtd">
<svg version="1.0" xmlns="http://www.w3.org/2000/svg"
 width="400.000000pt" height="400.000000pt" viewBox="0 0 400.000000 400.000000"
 preserveAspectRatio="xMidYMid meet">

<g transform="translate(0.000000,400.000000) scale(0.100000,-0.100000)"
fill="#000000" stroke="none">
<path d="M1980 3923 c-8 -4 -20 -14 -27 -23 -9 -13 -34 -18 -105 -23 -221 -16
-491 -104 -692 -226 -56 -34 -75 -40 -101 -35 -38 7 -75 -21 -75 -56 0 -12
-54 -73 -138 -157 -87 -87 -161 -171 -199 -228 -67 -100 -151 -254 -179 -328
-9 -27 -25 -51 -33 -54 -48 -17 -68 -76 -36 -103 8 -7 13 -15 10 -19 -2 -4
-13 -53 -25 -110 -45 -222 -44 -479 4 -691 20 -91 22 -106 9 -115 -9 -7 -13
-24 -11 -45 2 -28 9 -38 34 -49 26 -11 37 -28 65 -94 38 -92 131 -252 203
-347 27 -36 105 -120 172 -187 73 -71 124 -130 124 -141 0 -30 33 -53 74 -50
23 1 42 -4 53 -14 15 -15 6 -31 -122 -210 -76 -106 -140 -200 -142 -209 -11
-40 57 -97 101 -85 13 4 73 80 161 207 77 111 144 203 150 205 6 3 44 -11 85
-30 41 -19 122 -48 180 -66 58 -17 114 -35 126 -40 19 -7 22 -24 39 -236 16
-191 22 -231 37 -246 23 -23 79 -23 109 1 l23 18 -18 189 c-9 104 -20 201 -22
216 l-6 28 65 0 c57 0 67 -3 80 -24 27 -41 88 -39 102 3 5 18 15 21 59 21 86
0 289 39 404 77 122 40 258 102 352 160 54 33 71 39 104 35 45 -5 66 13 66 58
0 19 17 40 74 88 84 72 186 188 264 300 54 77 182 324 182 349 0 8 14 19 30
25 36 12 49 48 30 83 -11 20 -9 41 8 127 55 265 56 463 5 698 -18 79 -19 105
-8 157 6 29 4 35 -23 50 -22 13 -39 36 -58 83 -90 217 -266 464 -433 605 -59
50 -71 65 -71 91 0 50 -49 80 -89 55 -9 -6 -31 2 -69 27 -195 124 -491 223
-720 239 -78 5 -96 10 -118 30 -25 23 -37 26 -64 16z m235 -174 c604 -72 1137
-547 1284 -1144 35 -143 45 -228 45 -380 -1 -172 -13 -267 -55 -414 -38 -132
-76 -224 -140 -337 -244 -428 -662 -711 -1144 -774 -90 -12 -388 -11 -400 1
-8 9 -77 710 -71 726 3 7 88 131 189 275 189 272 299 440 432 663 42 72 92
144 111 161 36 34 46 80 20 90 -26 10 -70 -19 -76 -49 -3 -15 -54 -86 -116
-160 -159 -189 -311 -386 -454 -589 -106 -150 -126 -174 -132 -155 -3 12 -14
105 -23 207 -21 232 -46 425 -87 655 -17 99 -32 210 -32 247 -1 51 -6 73 -20
89 l-19 23 -18 -23 c-20 -24 -25 -70 -10 -86 5 -6 14 -158 20 -340 7 -181 25
-474 41 -650 l28 -320 -194 -272 c-107 -150 -198 -273 -202 -273 -13 0 -177
126 -240 184 -237 220 -406 536 -462 861 -23 132 -27 359 -9 478 110 732 723
1286 1459 1320 74 4 166 -1 275 -14z m-585 -2762 c12 -137 20 -251 16 -254 -8
-8 -166 43 -249 80 -41 18 -66 35 -63 42 2 7 31 50 63 96 33 46 92 130 132
187 40 57 74 102 76 100 2 -2 13 -115 25 -251z"/>
</g>
</svg>
