<?xml version="1.0" standalone="no"?>
<!DOCTYPE svg PUBLIC "-//W3C//DTD SVG 20010904//EN"
 "http://www.w3.org/TR/2001/REC-SVG-20010904/DTD/svg10.dtd">
<svg version="1.0" xmlns="http://www.w3.org/2000/svg"
 width="500.000000pt" height="500.000000pt" viewBox="0 0 500.000000 500.000000"
 preserveAspectRatio="xMidYMid meet">

<g transform="translate(0.000000,500.000000) scale(0.100000,-0.100000)"
fill="#000000" stroke="none">
<path d="M2464 4605 c-19 -18 -38 -25 -66 -25 -92 0 -283 -40 -412 -86 -76
-27 -182 -79 -266 -129 -41 -24 -63 -32 -86 -28 -25 4 -35 0 -47 -17 -9 -12
-13 -28 -10 -36 3 -8 -9 -25 -29 -40 -79 -64 -231 -231 -293 -325 -58 -87
-165 -292 -165 -316 0 -5 -13 -14 -30 -20 -24 -9 -30 -17 -30 -40 0 -16 5 -34
10 -39 8 -8 4 -42 -12 -115 -19 -89 -22 -134 -23 -309 0 -179 3 -218 24 -311
21 -98 22 -108 7 -130 -12 -20 -13 -29 -3 -49 7 -14 21 -26 32 -28 14 -2 33
-30 65 -100 90 -196 216 -368 373 -508 49 -44 77 -76 77 -89 0 -30 19 -45 60
-45 19 0 42 -5 50 -10 19 -12 15 -19 -129 -221 -61 -85 -111 -162 -111 -172 0
-26 45 -67 74 -67 28 0 40 14 186 225 57 83 105 152 106 154 2 2 42 -14 90
-34 48 -21 132 -51 187 -66 56 -16 101 -30 102 -32 3 -3 35 -378 35 -399 0
-42 74 -65 115 -34 18 13 19 18 2 197 -9 101 -17 192 -17 202 0 15 7 16 58 11
35 -4 63 -13 72 -24 26 -30 49 -32 75 -6 18 18 39 25 97 30 126 13 229 34 343
72 108 35 275 113 344 160 24 16 42 21 62 17 36 -7 59 11 59 46 1 19 15 37 57
71 65 52 183 185 250 279 48 67 173 305 173 328 0 7 6 13 13 13 8 0 22 9 32
20 16 18 17 25 6 55 -10 27 -9 45 3 92 55 220 55 486 0 707 -11 41 -12 62 -5
69 20 20 12 55 -18 79 -17 13 -41 51 -56 88 -72 173 -174 320 -332 478 -86 87
-123 130 -123 146 0 33 -24 49 -62 42 -24 -4 -41 0 -63 15 -55 37 -244 129
-318 153 -107 37 -251 66 -347 73 -60 4 -91 11 -105 23 -35 30 -53 31 -81 5z
m176 -135 c351 -31 689 -205 924 -476 474 -547 453 -1362 -49 -1883 -220 -229
-473 -361 -795 -416 -89 -15 -350 -19 -385 -6 -18 7 -22 35 -52 336 l-32 329
28 35 c117 151 431 626 563 852 31 53 68 103 82 113 18 11 26 25 26 45 0 37
-6 41 -41 29 -20 -7 -31 -19 -38 -44 -5 -19 -34 -62 -64 -97 -148 -170 -301
-369 -482 -624 -44 -62 -83 -113 -86 -113 -4 0 -12 57 -18 128 -23 245 -42
389 -78 607 -20 121 -36 250 -37 287 -1 51 -5 72 -19 85 -18 17 -19 17 -33 -1
-15 -22 -19 -72 -6 -80 5 -3 12 -132 16 -286 3 -154 13 -352 21 -438 8 -86 17
-188 21 -227 3 -38 9 -108 14 -155 l8 -84 -177 -248 c-97 -136 -180 -248 -186
-248 -22 0 -155 110 -256 210 -157 156 -262 328 -333 541 -100 299 -91 646 23
941 189 487 653 842 1161 888 125 11 154 11 280 0z m-482 -2432 c7 -79 15
-183 19 -232 l6 -88 -34 7 c-94 20 -263 89 -257 105 6 19 241 350 248 350 4 0
12 -64 18 -142z"/>
<path d="M2353 900 c-104 -22 -163 -84 -163 -173 0 -52 30 -102 77 -130 17
-10 74 -29 125 -43 51 -14 103 -31 115 -39 79 -52 24 -135 -90 -135 -48 0
-104 36 -118 75 -13 35 -14 35 -72 35 l-60 0 7 -42 c9 -58 46 -101 111 -133
46 -23 68 -27 136 -27 131 0 223 58 238 149 13 73 -17 145 -73 175 -10 5 -57
21 -105 34 -162 46 -194 72 -157 129 40 61 196 32 196 -37 0 -16 9 -18 64 -18
l64 0 -9 41 c-5 23 -17 52 -27 65 -40 57 -166 93 -259 74z"/>
<path d="M3203 900 c-66 -14 -120 -47 -162 -100 -51 -64 -65 -108 -65 -200 0
-97 15 -147 64 -208 120 -153 371 -137 455 28 14 27 25 63 25 80 l0 31 -57 -3
c-55 -3 -58 -4 -67 -36 -22 -78 -97 -117 -179 -92 -81 24 -126 112 -114 227 8
73 35 123 83 150 72 42 165 19 199 -48 15 -27 19 -29 75 -29 l60 0 -6 28 c-18
76 -100 153 -185 171 -56 12 -66 12 -126 1z"/>
<path d="M3855 905 c-5 -2 -26 -6 -46 -9 -81 -14 -175 -107 -200 -199 -17 -65
-12 -181 10 -232 45 -103 113 -157 214 -173 222 -35 384 145 337 375 -22 106
-73 174 -160 212 -43 18 -134 34 -155 26z m123 -131 c46 -34 72 -98 72 -179 0
-91 -28 -150 -85 -182 -50 -28 -96 -29 -150 -3 -73 36 -109 140 -86 250 21 99
76 143 169 137 32 -2 64 -12 80 -23z"/>
<path d="M820 595 l0 -295 60 0 60 0 2 208 c2 114 6 200 10 192 3 -8 37 -102
74 -208 l67 -193 51 3 50 3 67 199 c37 109 71 202 76 207 4 4 7 -86 5 -201
l-3 -210 60 0 61 0 0 295 0 296 -91 -3 -92 -3 -61 -191 c-33 -105 -65 -192
-71 -193 -5 -1 -39 86 -75 194 l-65 195 -92 0 -93 0 0 -295z"/>
<path d="M1580 683 c0 -115 5 -225 11 -246 14 -50 64 -106 117 -129 52 -23
169 -27 227 -8 60 19 105 57 128 109 19 41 22 70 25 264 l4 217 -65 0 -66 0
-3 -220 -3 -220 -26 -26 c-51 -51 -168 -42 -202 15 -15 25 -17 59 -17 240 l0
211 -65 0 -65 0 0 -207z"/>
<path d="M2750 595 l0 -295 65 0 65 0 0 295 0 295 -65 0 -65 0 0 -295z"/>
</g>
</svg>
